<svg width="26" height="26" xmlns="http://www.w3.org/2000/svg">
    <g fill="none" fill-rule="evenodd">
        <path d="M5.785 11.71a.675.675 0 0 0-.53-.213c-.201.007-.39.1-.514.251L2.148 14.92a.653.653 0 0 0 .113.936.699.699 0 0 0 .426.144.696.696 0 0 0 .54-.252l2.092-2.561 2.472 2.598c.134.142.302.208.525.215a.7.7 0 0 0 .511-.243l4.81-5.664 2.482 2.61c.133.14.31.214.519.215a.699.699 0 0 0 .51-.233l6.687-7.587a.652.652 0 0 0-.076-.94.705.705 0 0 0-.97.075l-6.184 7.015-2.491-2.62a.668.668 0 0 0-.525-.214.7.7 0 0 0-.512.242l-4.81 5.664-2.482-2.61z" fill="#DD5858"/>
        <path stroke="#DD5858" stroke-width=".688" stroke-linecap="round" stroke-linejoin="round" d="M2.538 20.621h20.424"/>
    </g>
</svg>
