<svg width="82" height="83" viewBox="0 0 82 83" xmlns="http://www.w3.org/2000/svg">
    <g fill="none" fill-rule="evenodd">
        <path d="M-11 3h81.231v81.231H-11z"/>
        <path d="m29.63 26.365.143.054 2.298 1.286a30.98 30.98 0 0 0 15.093 3.923h2.684c.053 0 .083.03.083.053v22.175c0 9.002-5.516 16.977-14.073 20.328l-6.202 2.428-.04.007-.039-.006-6.205-2.429C14.816 70.834 9.3 62.858 9.3 53.856V31.68c0-.023.03-.053.084-.053h2.683l.66-.007a30.976 30.976 0 0 0 14.434-3.917l2.303-1.287.138-.052h.028zm-.905 12.128c-3.878 0-7.045 3.221-7.044 7.168 0 2.624 1.457 4.962 3.681 6.213v12.105l.01.25c.143 1.646 1.677 2.805 3.353 2.805 1.76 0 3.364-1.279 3.364-3.055v-2.434c.055.008.112.013.17.013h3.474c.631 0 1.143-.512 1.143-1.143v-.736c0-.631-.512-1.143-1.143-1.143H32.26c-.058 0-.115.005-.17.013v-2.026c.055.008.112.012.17.012h3.474c.631 0 1.143-.511 1.143-1.142v-.737c0-.63-.512-1.142-1.143-1.142H32.26c-.058 0-.115.004-.17.012V51.87l.312-.186c2.046-1.286 3.366-3.524 3.37-6.023l-.01-.357c-.183-3.781-3.275-6.81-7.036-6.81zm0 2.093c2.767 0 4.988 2.26 4.988 5.075-.003 2.042-1.203 3.877-3.053 4.67a1.047 1.047 0 0 0-.628.964v12.683l-.012.124c-.078.416-.543.84-1.295.84-.826 0-1.306-.514-1.306-.964V51.3l-.011-.156a1.044 1.044 0 0 0-.617-.809c-1.852-.793-3.053-2.63-3.053-4.674 0-2.815 2.22-5.075 4.987-5.075zm1.179-32.51c8.035 0 14.548 6.526 14.548 14.575l-.002 6.313a28.55 28.55 0 0 1-3.162-.483l.002-5.83c0-6.187-4.918-11.223-11.05-11.4l-.336-.006h-1.265c-6.176 0-11.204 4.926-11.381 11.07l-.005.336.002 5.966c-1.045.193-2.1.329-3.163.404l-.002-6.37c0-8.049 6.514-14.574 14.549-14.574h1.265z" fill="#444" fill-rule="nonzero"/>
        <g transform="translate(39.77 14.846)" fill-rule="nonzero">
            <circle stroke="#FFF" stroke-width="2" fill="#C00" cx="18.615" cy="18.615" r="18.615"/>
            <path d="M18.615 9.449c.714 0 1.367.328 1.81.9l.116.162.102.17 6.83 13.44a2.523 2.523 0 0 1-.007 2.433c-.356.648-.952 1.079-1.646 1.196l-.192.024-.188.008H11.79c-.847 0-1.604-.46-2.026-1.228a2.53 2.53 0 0 1-.174-2.056l.08-.202.092-.185 6.827-13.434c.422-.768 1.18-1.228 2.026-1.228zm-.695 1.548-.103.092-.09.107-.067.103-6.824 13.427a1.23 1.23 0 0 0-.007 1.196c.156.285.407.48.695.553l.125.023.14.009H25.44c.401 0 .76-.218.961-.585.154-.281.192-.604.113-.902l-.05-.147-.065-.137-6.83-13.44c-.318-.578-1.147-.691-1.65-.3zm.695 11.537c.266 0 .495.176.58.435l.025.101.008.101v.994c0 .35-.273.637-.613.637a.614.614 0 0 1-.58-.435l-.025-.101-.008-.101v-.994c0-.35.272-.637.613-.637zm0-6.953c.266 0 .495.177.58.436l.025.1.008.102v4.966c0 .35-.273.638-.613.638a.614.614 0 0 1-.58-.436l-.025-.1-.008-.102v-4.966c0-.351.272-.638.613-.638z" fill="#FFF"/>
        </g>
    </g>
</svg>
