<!-- Generated by IcoMoon.io -->
<svg version="1.1" xmlns="http://www.w3.org/2000/svg" width="1069" height="1024" viewBox="0 0 1069 1024">
<title></title>
<g id="icomoon-ignore">
</g>
<path d="M330.359 421.532h391.706v-65.296h-391.706zM689.429 111.289c-23.902 0-46.039 6.876-65.319 18.095-19.257-11.219-41.347-18.095-65.25-18.095-11.545 0-22.671 1.626-33.333 4.437-10.29-2.602-20.859-4.437-31.963-4.437-23.74 0-45.714 6.829-64.901 17.909-19.303-11.266-41.696-17.909-65.668-17.909-72.102 0-130.569 58.467-130.569 130.569v65.296h65.296v-65.296c0-36.051 29.222-65.273 65.273-65.273 5.83 0 11.405 0.999 16.794 2.439-10.36 18.722-16.794 39.93-16.794 62.834v65.296h65.296v-65.296c0-36.051 29.222-65.273 65.273-65.273v130.569h65.296v-130.569c36.051 0 65.273 29.222 65.273 65.273v65.296h65.296v-65.296c0-22.927-6.411-44.111-16.771-62.834 5.366-1.44 10.941-2.439 16.771-2.439 36.051 0 65.296 29.222 65.296 65.273v65.296h65.273v-65.296c0-72.102-58.467-130.569-130.569-130.569zM540.463 35.726v-30.755h-28.502v30.755h-30.732v28.502h30.732l0.023 30.755h28.478v-30.755h30.755v-28.502h-30.755zM852.634 470.359c0 77.259-26.899 148.153-71.754 203.995-26.086-116.701-130.104-203.972-254.68-203.972-78.095 0-147.99 34.471-195.841 88.827v-88.827l-326.433-0.023c0 288.454 233.844 522.298 522.275 522.298 288.478 0 522.298-233.844 522.298-522.298h-195.865zM74.402 535.655h190.661v195.865h0.023c0 51.080 14.89 98.583 40.232 138.815-122.555-67.828-210.197-190.383-230.917-334.68zM526.2 927.361c-108.13 0-195.841-87.735-195.841-195.865 0-108.153 87.712-195.818 195.865-195.818 108.13 0 195.818 87.665 195.818 195.423-22.183 16.655-46.434 30.755-72.474 41.394 4.321-12.962 7.201-26.597 7.201-40.999 0-73.774-58.443-130.476-130.545-130.476-72.125 0-130.476 58.374-130.476 130.476s58.351 130.569 130.453 130.569c194.146 0 355.4-141.138 386.364-326.41h66.086c-31.243 221.486-222.183 391.706-452.449 391.706zM591.496 731.496c0 36.051-29.222 65.273-65.273 65.273s-65.296-29.222-65.296-65.273c0-36.051 29.245-65.273 65.296-65.273s65.273 29.222 65.273 65.273v0z"></path>
</svg>
